<svg xmlns="http://www.w3.org/2000/svg" viewBox="0 0 1200 750" font-family="Inter, 'Segoe UI', Arial, sans-serif">
  <defs>
    <linearGradient id="bg" x1="0" y1="0" x2="0" y2="1">
      <stop offset="0%" stop-color="#0A0E17"/>
      <stop offset="100%" stop-color="#000000"/>
    </linearGradient>
    <linearGradient id="glowCian" x1="0" y1="0" x2="1" y2="1">
      <stop offset="0%" stop-color="#00D4FF" stop-opacity="0.15"/>
      <stop offset="100%" stop-color="#00D4FF" stop-opacity="0"/>
    </linearGradient>
    <linearGradient id="boxPhone" x1="0" y1="0" x2="0" y2="1">
      <stop offset="0%" stop-color="#131A26"/>
      <stop offset="100%" stop-color="#0F172A"/>
    </linearGradient>
    <linearGradient id="boxPC" x1="0" y1="0" x2="0" y2="1">
      <stop offset="0%" stop-color="#131A26"/>
      <stop offset="100%" stop-color="#0F172A"/>
    </linearGradient>
    <filter id="glow">
      <feGaussianBlur stdDeviation="3" result="blur"/>
      <feMerge><feMergeNode in="blur"/><feMergeNode in="SourceGraphic"/></feMerge>
    </filter>
    <filter id="glowStrong">
      <feGaussianBlur stdDeviation="6" result="blur"/>
      <feMerge><feMergeNode in="blur"/><feMergeNode in="SourceGraphic"/></feMerge>
    </filter>
    <marker id="arrowCian" viewBox="0 0 10 10" refX="9" refY="5" markerWidth="6" markerHeight="6" orient="auto">
      <path d="M 0 0 L 10 5 L 0 10 z" fill="#00D4FF"/>
    </marker>
    <marker id="arrowGray" viewBox="0 0 10 10" refX="9" refY="5" markerWidth="6" markerHeight="6" orient="auto">
      <path d="M 0 0 L 10 5 L 0 10 z" fill="#5A6A7A"/>
    </marker>
  </defs>

  <!-- Fondo -->
  <rect width="1200" height="750" fill="url(#bg)"/>

  <!-- Título -->
  <text x="600" y="38" text-anchor="middle" fill="#00D4FF" font-size="22" font-weight="700" letter-spacing="3">J.A.R.V.I.S. — ARQUITECTURA DEL SISTEMA</text>
  <line x1="200" y1="48" x2="1000" y2="48" stroke="#00D4FF" stroke-opacity="0.3" stroke-width="1"/>

  <!-- Partículas -->
  <circle cx="100" cy="120" r="1.5" fill="#00D4FF" opacity="0.15"/>
  <circle cx="350" cy="90" r="1" fill="#00D4FF" opacity="0.1"/>
  <circle cx="800" cy="130" r="1.5" fill="#00D4FF" opacity="0.12"/>
  <circle cx="1100" cy="100" r="1" fill="#00D4FF" opacity="0.08"/>
  <circle cx="200" cy="650" r="1" fill="#00D4FF" opacity="0.1"/>
  <circle cx="950" cy="680" r="1.5" fill="#00D4FF" opacity="0.12"/>

  <!-- Label: LAN / Casa -->
  <text x="600" y="72" text-anchor="middle" fill="#5A6A7A" font-size="11" letter-spacing="2">RED LOCAL (TUNEL TAILSCALE)</text>

  <!-- ==================== CELULAR ==================== -->
  <rect x="40" y="80" width="340" height="560" rx="12" fill="url(#boxPhone)" stroke="#1E293B" stroke-width="1.5"/>
  <rect x="40" y="80" width="340" height="40" rx="12" fill="#00D4FF" opacity="0.08"/>
  <text x="210" y="105" text-anchor="middle" fill="#00D4FF" font-size="14" font-weight="600" letter-spacing="2">📱 CELULAR (24/7)</text>
  <text x="210" y="640" text-anchor="middle" fill="#5A6A7A" font-size="10" letter-spacing="1">SIEMPRE ACTIVO · MODO AUTÓNOMO</text>

  <!-- Porcupine -->
  <rect x="60" y="135" width="300" height="50" rx="8" fill="#1E293B" stroke="#334155" stroke-width="1"/>
  <circle cx="85" cy="160" r="8" fill="#00D4FF" opacity="0.3" filter="url(#glow)"/>
  <circle cx="85" cy="160" r="4" fill="#00D4FF"/>
  <text x="105" y="156" fill="#E0E6ED" font-size="12" font-weight="500">Wake Word</text>
  <text x="105" y="173" fill="#94A3B8" font-size="10">Porcupine (~20 MB)</text>

  <!-- Flecha -->
  <line x1="210" y1="185" x2="210" y2="200" stroke="#00D4FF" stroke-width="1.5" marker-end="url(#arrowCian)"/>

  <!-- STT -->
  <rect x="60" y="203" width="300" height="50" rx="8" fill="#1E293B" stroke="#334155" stroke-width="1"/>
  <circle cx="85" cy="228" r="8" fill="#00D4FF" opacity="0.3"/>
  <circle cx="85" cy="228" r="4" fill="#00D4FF"/>
  <text x="105" y="224" fill="#E0E6ED" font-size="12" font-weight="500">STT Local</text>
  <text x="105" y="241" fill="#94A3B8" font-size="10">whisper.cpp tiny (~50 MB)</text>

  <!-- Flecha -->
  <line x1="210" y1="253" x2="210" y2="268" stroke="#00D4FF" stroke-width="1.5" marker-end="url(#arrowCian)"/>

  <!-- LLM Local -->
  <rect x="60" y="271" width="300" height="50" rx="8" fill="#1E293B" stroke="#334155" stroke-width="1"/>
  <circle cx="85" cy="296" r="8" fill="#FF6B35" opacity="0.3"/>
  <circle cx="85" cy="296" r="4" fill="#FF6B35"/>
  <text x="105" y="292" fill="#E0E6ED" font-size="12" font-weight="500">LLM Local (opcional)</text>
  <text x="105" y="309" fill="#94A3B8" font-size="10">Llama 3.2 1B (~1 GB)</text>

  <!-- Flecha -->
  <line x1="210" y1="321" x2="210" y2="336" stroke="#00D4FF" stroke-width="1.5" marker-end="url(#arrowCian)"/>

  <!-- Skills Mobile -->
  <rect x="60" y="339" width="300" height="80" rx="8" fill="#1E293B" stroke="#334155" stroke-width="1"/>
  <circle cx="85" cy="369" r="8" fill="#00FF88" opacity="0.3"/>
  <circle cx="85" cy="369" r="4" fill="#00FF88"/>
  <text x="105" y="360" fill="#E0E6ED" font-size="12" font-weight="500">Skills Locales (24)</text>
  <text x="105" y="377" fill="#94A3B8" font-size="10">SMS · Llamadas · Cámara · GPS</text>
  <text x="105" y="392" fill="#94A3B8" font-size="10">Contactos · Linterna · WiFi · Apps</text>
  <text x="105" y="407" fill="#94A3B8" font-size="10">Notificaciones · Salud · Drive Mode</text>

  <!-- Flecha -->
  <line x1="210" y1="419" x2="210" y2="434" stroke="#00D4FF" stroke-width="1.5" marker-end="url(#arrowCian)"/>

  <!-- DB Local -->
  <rect x="60" y="437" width="300" height="50" rx="8" fill="#1E293B" stroke="#334155" stroke-width="1"/>
  <circle cx="85" cy="462" r="8" fill="#94A3B8" opacity="0.3"/>
  <circle cx="85" cy="462" r="4" fill="#94A3B8"/>
  <text x="105" y="458" fill="#E0E6ED" font-size="12" font-weight="500">Base de Datos Local</text>
  <text x="105" y="475" fill="#94A3B8" font-size="10">SQLite · jarvis_mobile.db</text>

  <!-- Flecha -->
  <line x1="210" y1="487" x2="210" y2="502" stroke="#00D4FF" stroke-width="1.5" marker-end="url(#arrowCian)"/>

  <!-- TTS Nativo -->
  <rect x="60" y="505" width="300" height="50" rx="8" fill="#1E293B" stroke="#334155" stroke-width="1"/>
  <circle cx="85" cy="530" r="8" fill="#00FF88" opacity="0.3"/>
  <circle cx="85" cy="530" r="4" fill="#00FF88"/>
  <text x="105" y="526" fill="#E0E6ED" font-size="12" font-weight="500">TTS Nativo</text>
  <text x="105" y="543" fill="#94A3B8" font-size="10">Text-to-Speech del SO</text>

  <!-- Sync -->
  <rect x="60" y="575" width="300" height="42" rx="8" fill="#131A26" stroke="#00D4FF" stroke-width="1" stroke-dasharray="4,3"/>
  <text x="210" y="595" text-anchor="middle" fill="#00D4FF" font-size="11" font-weight="500" letter-spacing="1">🔄 Sync Service → PC vía Tailscale</text>
  <text x="210" y="610" text-anchor="middle" fill="#5A6A7A" font-size="9">Cola de pendientes · Merge automático</text>

  <!-- ==================== CONEXIÓN TAILSCALE ==================== -->
  <rect x="390" y="300" width="50" height="120" rx="10" fill="#131A26" stroke="#00D4FF" stroke-width="1" stroke-dasharray="4,3" opacity="0.6"/>
  <text x="415" y="335" text-anchor="middle" fill="#00D4FF" font-size="10" font-weight="600" letter-spacing="1" transform="rotate(-90, 415, 335)">TAILSCALE VPN</text>
  <text x="415" y="395" text-anchor="middle" fill="#5A6A7A" font-size="8" transform="rotate(-90, 415, 395)">WireGuard · $0</text>

  <!-- Flechas Tailscale (bidireccional) -->
  <line x1="380" y1="340" x2="395" y2="355" stroke="#00D4FF" stroke-width="1.5" marker-end="url(#arrowCian)" opacity="0.6"/>
  <line x1="395" y1="370" x2="380" y2="385" stroke="#00D4FF" stroke-width="1.5" marker-end="url(#arrowCian)" opacity="0.6"/>

  <!-- ==================== PC ==================== -->
  <rect x="460" y="80" width="700" height="560" rx="12" fill="url(#boxPC)" stroke="#1E293B" stroke-width="1.5"/>
  <rect x="460" y="80" width="700" height="40" rx="12" fill="#00D4FF" opacity="0.08"/>
  <text x="810" y="105" text-anchor="middle" fill="#00D4FF" font-size="14" font-weight="600" letter-spacing="2">🖥️ PC (POTENCIA EXTRA)</text>
  <text x="810" y="640" text-anchor="middle" fill="#5A6A7A" font-size="10" letter-spacing="1">SE PRENDE → PROCESA SINCRONIZA → SE APAGA</text>

  <!-- Wake Word PC -->
  <rect x="485" y="135" width="300" height="50" rx="8" fill="#1E293B" stroke="#334155" stroke-width="1"/>
  <circle cx="510" cy="160" r="8" fill="#00D4FF" opacity="0.3" filter="url(#glow)"/>
  <circle cx="510" cy="160" r="4" fill="#00D4FF"/>
  <text x="530" y="156" fill="#E0E6ED" font-size="12" font-weight="500">Wake Word</text>
  <text x="530" y="173" fill="#94A3B8" font-size="10">OpenWakeWord (~200 MB)</text>

  <!-- Flecha -->
  <line x1="635" y1="185" x2="635" y2="200" stroke="#00D4FF" stroke-width="1.5" marker-end="url(#arrowCian)"/>

  <!-- STT PC -->
  <rect x="485" y="203" width="300" height="50" rx="8" fill="#1E293B" stroke="#334155" stroke-width="1"/>
  <circle cx="510" cy="228" r="8" fill="#00D4FF" opacity="0.3"/>
  <circle cx="510" cy="228" r="4" fill="#00D4FF"/>
  <text x="530" y="224" fill="#E0E6ED" font-size="12" font-weight="500">STT</text>
  <text x="530" y="241" fill="#94A3B8" font-size="10">faster-whisper (~1 GB)</text>

  <!-- Flecha -->
  <line x1="635" y1="253" x2="635" y2="268" stroke="#00D4FF" stroke-width="1.5" marker-end="url(#arrowCian)"/>

  <!-- Brain (Ollama) -->
  <rect x="485" y="271" width="300" height="65" rx="8" fill="#1E293B" stroke="#FF6B35" stroke-width="1.5"/>
  <circle cx="510" cy="296" r="8" fill="#FF6B35" opacity="0.4" filter="url(#glowStrong)"/>
  <circle cx="510" cy="296" r="4" fill="#FF6B35"/>
  <text x="530" y="292" fill="#E0E6ED" font-size="12" font-weight="500">🧠 Brain — Cerebro Principal</text>
  <text x="530" y="309" fill="#94A3B8" font-size="10">Ollama + Llama 3.1 8B (~5-6 GB RAM)</text>
  <text x="530" y="324" fill="#5A6A7A" font-size="9">System prompt · Personalidad · 7 tonos</text>

  <!-- Flecha -->
  <line x1="635" y1="336" x2="635" y2="351" stroke="#00D4FF" stroke-width="1.5" marker-end="url(#arrowCian)"/>

  <!-- Skills PC -->
  <rect x="485" y="354" width="300" height="80" rx="8" fill="#1E293B" stroke="#334155" stroke-width="1"/>
  <circle cx="510" cy="384" r="8" fill="#00FF88" opacity="0.3"/>
  <circle cx="510" cy="384" r="4" fill="#00FF88"/>
  <text x="530" y="375" fill="#E0E6ED" font-size="12" font-weight="500">Skills PC (32)</text>
  <text x="530" y="392" fill="#94A3B8" font-size="10">Shell · Spotify · Gmail · Calendario</text>
  <text x="530" y="407" fill="#94A3B8" font-size="10">Web · RAG · Git · Telegram · Backup</text>
  <text x="530" y="422" fill="#94A3B8" font-size="10">Escritorio · Grabación · Red · Más...</text>

  <!-- Flecha -->
  <line x1="635" y1="434" x2="635" y2="449" stroke="#00D4FF" stroke-width="1.5" marker-end="url(#arrowCian)"/>

  <!-- Orquestador -->
  <rect x="485" y="452" width="300" height="42" rx="8" fill="#131A26" stroke="#00D4FF" stroke-width="1.5"/>
  <text x="635" y="472" text-anchor="middle" fill="#00D4FF" font-size="11" font-weight="500" letter-spacing="1">⚙️ jarvis_engine.py (Orquestador)</text>
  <text x="635" y="487" text-anchor="middle" fill="#5A6A7A" font-size="9">Router de skills · Contexto · Privacidad</text>

  <!-- ==================== MÓDULOS A LA DERECHA ==================== -->

  <!-- TTS -->
  <rect x="810" y="135" width="325" height="50" rx="8" fill="#1E293B" stroke="#334155" stroke-width="1"/>
  <circle cx="835" cy="160" r="8" fill="#00FF88" opacity="0.3"/>
  <circle cx="835" cy="160" r="4" fill="#00FF88"/>
  <text x="855" y="156" fill="#E0E6ED" font-size="12" font-weight="500">TTS</text>
  <text x="855" y="173" fill="#94A3B8" font-size="10">Edge-TTS · Voz: Elena (es-AR)</text>

  <!-- Memory -->
  <rect x="810" y="200" width="325" height="50" rx="8" fill="#1E293B" stroke="#334155" stroke-width="1"/>
  <circle cx="835" cy="225" r="8" fill="#94A3B8" opacity="0.3"/>
  <circle cx="835" cy="225" r="4" fill="#94A3B8"/>
  <text x="855" y="221" fill="#E0E6ED" font-size="12" font-weight="500">Memoria Conversacional</text>
  <text x="855" y="238" fill="#94A3B8" font-size="10">Corto plazo (20 msgs) + Largo plazo (resúmenes)</text>

  <!-- RAG -->
  <rect x="810" y="265" width="325" height="50" rx="8" fill="#1E293B" stroke="#334155" stroke-width="1"/>
  <circle cx="835" cy="290" r="8" fill="#FF6B35" opacity="0.3"/>
  <circle cx="835" cy="290" r="4" fill="#FF6B35"/>
  <text x="855" y="286" fill="#E0E6ED" font-size="12" font-weight="500">RAG — Base de Conocimiento</text>
  <text x="855" y="303" fill="#94A3B8" font-size="10">ChromaDB + sentence-transformers</text>

  <!-- Aprendizaje -->
  <rect x="810" y="330" width="325" height="50" rx="8" fill="#1E293B" stroke="#334155" stroke-width="1"/>
  <circle cx="835" cy="355" r="8" fill="#00D4FF" opacity="0.3"/>
  <circle cx="835" cy="355" r="4" fill="#00D4FF"/>
  <text x="855" y="351" fill="#E0E6ED" font-size="12" font-weight="500">Aprendizaje Continuo</text>
  <text x="855" y="368" fill="#94A3B8" font-size="10">5 capas · Consolidación nocturna</text>

  <!-- DB Maestra -->
  <rect x="810" y="395" width="325" height="65" rx="8" fill="#1E293B" stroke="#00FF88" stroke-width="1" stroke-dasharray="4,3"/>
  <circle cx="835" cy="420" r="8" fill="#00FF88" opacity="0.3"/>
  <circle cx="835" cy="420" r="4" fill="#00FF88"/>
  <text x="855" y="416" fill="#E0E6ED" font-size="12" font-weight="500">💾 Base de Datos Maestra</text>
  <text x="855" y="433" fill="#94A3B8" font-size="10">SQLite · jarvis.db</text>
  <text x="855" y="448" fill="#5A6A7A" font-size="9">Conversaciones · Preferencias · Skills · Sync</text>

  <!-- Sistema Conversacional -->
  <rect x="810" y="475" width="325" height="50" rx="8" fill="#1E293B" stroke="#334155" stroke-width="1"/>
  <circle cx="835" cy="500" r="8" fill="#FF6B35" opacity="0.3"/>
  <circle cx="835" cy="500" r="4" fill="#FF6B35"/>
  <text x="855" y="496" fill="#E0E6ED" font-size="12" font-weight="500">🎭 Sistema Conversacional</text>
  <text x="855" y="513" fill="#94A3B8" font-size="10">7 tonos · Detección de ánimo · Proactivo</text>

  <!-- Tray -->
  <rect x="810" y="540" width="325" height="42" rx="8" fill="#131A26" stroke="#334155" stroke-width="1"/>
  <text x="972" y="560" text-anchor="middle" fill="#5A6A7A" font-size="11" letter-spacing="1">🔵 Ícono en bandeja del sistema (pystray)</text>
  <text x="972" y="575" text-anchor="middle" fill="#5A6A7A" font-size="9">Click derecho: Activar mic · Sigilo · Salir</text>

  <!-- Flechas de conexión entre orquestador y módulos -->
  <line x1="785" y1="473" x2="810" y2="473" stroke="#5A6A7A" stroke-width="1" stroke-dasharray="3,2"/>
  <line x1="785" y1="160" x2="810" y2="160" stroke="#5A6A7A" stroke-width="1" stroke-dasharray="3,2"/>
  <line x1="785" y1="225" x2="810" y2="225" stroke="#5A6A7A" stroke-width="1" stroke-dasharray="3,2"/>
  <line x1="785" y1="290" x2="810" y2="290" stroke="#5A6A7A" stroke-width="1" stroke-dasharray="3,2"/>
  <line x1="785" y1="355" x2="810" y2="355" stroke="#5A6A7A" stroke-width="1" stroke-dasharray="3,2"/>
  <line x1="785" y1="427" x2="810" y2="427" stroke="#5A6A7A" stroke-width="1" stroke-dasharray="3,2"/>
  <line x1="785" y1="561" x2="810" y2="561" stroke="#5A6A7A" stroke-width="1" stroke-dasharray="3,2"/>

  <!-- ==================== LÍNEA DIVISORIA CELU → PC ==================== -->
  <line x1="380" y1="520" x2="460" y2="520" stroke="#00D4FF" stroke-width="1.5" stroke-dasharray="6,4" marker-end="url(#arrowCian)" opacity="0.5"/>
  <line x1="460" y1="530" x2="380" y2="530" stroke="#00D4FF" stroke-width="1.5" stroke-dasharray="6,4" marker-end="url(#arrowCian)" opacity="0.5"/>
  <text x="420" y="540" text-anchor="middle" fill="#5A6A7A" font-size="8">audio →</text>
  <text x="420" y="550" text-anchor="middle" fill="#5A6A7A" font-size="8">← TTS + sync</text>

  <!-- ==================== SISTEMA DE PERSONALIDAD (inferior) ==================== -->
  <rect x="485" y="505" width="300" height="95" rx="8" fill="#131A26" stroke="#334155" stroke-width="1"/>
  <text x="635" y="522" text-anchor="middle" fill="#00D4FF" font-size="11" font-weight="500">🎭 Motor de Personalidad</text>
  <text x="635" y="540" text-anchor="middle" fill="#94A3B8" font-size="10">Formal · Estándar · Casual · Directo</text>
  <text x="635" y="555" text-anchor="middle" fill="#94A3B8" font-size="10">Sarcástico · Empático · Juguetón</text>
  <text x="635" y="575" text-anchor="middle" fill="#5A6A7A" font-size="9">Detección de ánimo + Contexto ambiental</text>
  <text x="635" y="592" text-anchor="middle" fill="#5A6A7A" font-size="9">Sugerencias proactivas · Recordatorios</text>

  <!-- ==================== INTERNET (abajo) ==================== -->
  <rect x="200" y="685" width="800" height="45" rx="10" fill="#0A0E17" stroke="#1E293B" stroke-width="1"/>
  <text x="300" y="712" fill="#5A6A7A" font-size="10">🌐 Internet</text>
  <text x="380" y="712" fill="#5A6A7A" font-size="10">Spotify API · Gmail SMTP · Telegram Bot · Open-Meteo · DuckDuckGo · Google Calendar</text>

</svg>
