<svg xmlns="http://www.w3.org/2000/svg" width="1600" height="500" viewBox="0 0 1600 500">
  <rect width="1600" height="500" fill="#07111f"/>
  <circle cx="380" cy="250" r="170" fill="url(#grad)"/>
  <rect x="285" y="170" width="190" height="160" rx="38" fill="#F8FAFC"/>
  <rect x="316" y="198" width="128" height="86" rx="26" fill="#111827"/>
  <circle cx="344" cy="241" r="8" fill="#F8FAFC"/>
  <circle cx="400" cy="241" r="8" fill="#F8FAFC"/>
  <path d="M345 269c14 10 29 10 43 0" stroke="#F8FAFC" stroke-width="8" stroke-linecap="round"/>
  <path d="M220 214c-32 0-56 24-56 56s24 56 56 56" stroke="#38BDF8" stroke-width="16" stroke-linecap="round"/>
  <path d="M540 214c32 0 56 24 56 56s-24 56-56 56" stroke="#38BDF8" stroke-width="16" stroke-linecap="round"/>
  <text x="650" y="230" font-family="Segoe UI, Arial, sans-serif" font-size="92" font-weight="700" fill="#F8FAFC">JARVIS</text>
  <text x="650" y="292" font-family="Segoe UI, Arial, sans-serif" font-size="38" fill="#93C5FD">Tu asistente inteligente, listo para ayudar</text>
  <text x="650" y="345" font-family="Segoe UI, Arial, sans-serif" font-size="26" fill="#CBD5E1">Diseñado para voz, automatización y productividad</text>
  <defs>
    <linearGradient id="grad" x1="210" y1="80" x2="550" y2="420" gradientUnits="userSpaceOnUse">
      <stop offset="0%" stop-color="#38BDF8"/>
      <stop offset="100%" stop-color="#2563EB"/>
    </linearGradient>
  </defs>
</svg>
