<svg xmlns="http://www.w3.org/2000/svg" width="900" height="260" viewBox="0 0 900 260">
  <rect width="900" height="260" rx="32" fill="#020617"/>
  <circle cx="132" cy="130" r="94" fill="url(#grad)"/>
  <rect x="82" y="86" width="100" height="88" rx="24" fill="#F8FAFC"/>
  <rect x="96" y="100" width="72" height="46" rx="14" fill="#1E293B"/>
  <circle cx="112" cy="123" r="5" fill="#F8FAFC"/>
  <circle cx="148" cy="123" r="5" fill="#F8FAFC"/>
  <path d="M114 144c10 8 22 8 32 0" stroke="#F8FAFC" stroke-width="5" stroke-linecap="round"/>
  <rect x="100" y="72" width="16" height="16" rx="4" fill="#38BDF8"/>
  <rect x="148" y="72" width="16" height="16" rx="4" fill="#38BDF8"/>
  <path d="M64 104c-16 0-28 12-28 28s12 28 28 28" stroke="#38BDF8" stroke-width="10" stroke-linecap="round"/>
  <path d="M200 104c16 0 28 12 28 28s-12 28-28 28" stroke="#38BDF8" stroke-width="10" stroke-linecap="round"/>
  <text x="270" y="120" font-family="Segoe UI, Arial, sans-serif" font-size="76" font-weight="700" fill="#F8FAFC">JARVIS</text>
  <text x="270" y="170" font-family="Segoe UI, Arial, sans-serif" font-size="30" fill="#93C5FD">Asistente inteligente para tu flujo de trabajo</text>
  <defs>
    <linearGradient id="grad" x1="40" y1="40" x2="216" y2="220" gradientUnits="userSpaceOnUse">
      <stop offset="0%" stop-color="#38BDF8"/>
      <stop offset="100%" stop-color="#2563EB"/>
    </linearGradient>
  </defs>
</svg>
