<svg xmlns="http://www.w3.org/2000/svg" width="256" height="256" viewBox="0 0 256 256">
  <rect width="256" height="256" rx="56" fill="#0F172A"/>
  <circle cx="128" cy="128" r="92" fill="url(#grad)"/>
  <rect x="78" y="86" width="100" height="84" rx="24" fill="#F8FAFC"/>
  <rect x="92" y="100" width="72" height="46" rx="14" fill="#1E293B"/>
  <circle cx="110" cy="124" r="5" fill="#F8FAFC"/>
  <circle cx="146" cy="124" r="5" fill="#F8FAFC"/>
  <path d="M112 144c10 8 22 8 32 0" stroke="#F8FAFC" stroke-width="5" stroke-linecap="round"/>
  <rect x="96" y="72" width="16" height="16" rx="4" fill="#38BDF8"/>
  <rect x="144" y="72" width="16" height="16" rx="4" fill="#38BDF8"/>
  <path d="M70 102c-16 0-28 12-28 28s12 28 28 28" stroke="#38BDF8" stroke-width="10" stroke-linecap="round"/>
  <path d="M186 102c16 0 28 12 28 28s-12 28-28 28" stroke="#38BDF8" stroke-width="10" stroke-linecap="round"/>
  <defs>
    <linearGradient id="grad" x1="40" y1="40" x2="216" y2="220" gradientUnits="userSpaceOnUse">
      <stop offset="0%" stop-color="#38BDF8"/>
      <stop offset="100%" stop-color="#2563EB"/>
    </linearGradient>
  </defs>
</svg>
